external_pedal_forces_trial_4.mot
version=1
nRows=70
nColumns=7
inDegrees=yes
endheader
time	PedalClip_calcn_r_Fx	PedalClip_calcn_r_Fy	PedalClip_calcn_r_Fz	PedalClip_calcn_r_Px	PedalClip_calcn_r_Py	PedalClip_calcn_r_Pz
0	-3.92748187937752	20.5841507982241	335.476098944499	0.18960773463738	-0.177074059266284	0.0889999999999998
0.001	-4.4996905654492	20.9713316179229	338.763023160076	0.188947328546356	-0.175592178287672	0.0890000000000002
0.0015	-5.06900748437448	21.359441969618	342.032159784261	0.188294543013021	-0.174122937563573	0.0889999999999997
0.00358966	-5.63543347595261	21.7484785720468	345.28352573055	0.187649380056028	-0.172666337455583	0.0889999999999995
0.00517917	-6.19896956540533	22.1384373584799	348.517138626137	0.187011841757937	-0.171222378340207	0.0889999999999996
0.00676868	-6.75961687194994	22.5293135529715	351.733016280156	0.186381930264385	-0.169791060609642	0.0890000000000002
0.00822054	-7.31737661164707	22.9211019598748	354.931176673483	0.185759647782926	-0.168372384672596	0.0890000000000001
0.01015968	-7.87225010030375	23.3137972393933	358.11163794684	0.185144996581527	-0.16696635095512	0.0890000000000001
0.01209882	-8.42423875643658	23.7073940839956	361.274418387104	0.184537978985747	-0.165572959901458	0.0890000000000001
0.01369987	-8.97334417320848	24.1018870910322	364.4195369808	0.183938597375362	-0.164192211974894	0.0889999999999998
0.01530091	-9.51956837681563	24.4972705702849	367.547015329124	0.183346854179852	-0.162824107658589	0.0890000000000001
0.01657431	-10.062913739109	24.8935384744995	370.656876443794	0.182762751872528	-0.161468647299632	0.089
0.01769971	-10.6033825692353	25.2906843660935	373.749142178351	0.182186292963226	-0.160125830759536	0.0889999999999999
0.01880841	-11.1409770836108	25.6887014992931	376.823832928833	0.181617479989308	-0.158795658283207	0.0890000000000001
0.01991712	-11.6756996067805	26.0875829606432	379.88096859533	0.181056315504574	-0.157478130481789	0.0890000000000001
0.02216201	-12.207552733109	26.4873217873777	382.920569454281	0.180502802065924	-0.15617324806293	0.0890000000000001
0.023096	-12.7365393378386	26.8879109362675	385.94265633473	0.179956942217203	-0.154881011750401	0.0889999999999999
0.02402998	-13.2626623735395	27.2893429174749	388.947249678021	0.179418738470041	-0.153601422274798	0.0889999999999999
0.024723	-13.7859248116844	27.6916097554053	391.934369145333	0.178888193280892	-0.152334480371031	0.0889999999999999
0.02538678	-14.3063295913663	28.0947031118178	394.904032998274	0.178365309024054	-0.151080186775656	0.0889999999999999
0.02685525	-14.8238795208654	28.4986145290085	397.856257491256	0.177850087959743	-0.149838542224074	0.089
0.02832372	-15.338577491102	28.9033355895881	400.791057952381	0.177342532196744	-0.148609547447569	0.089
0.0289342	-15.850426246818	29.3088577730771	403.708447485644	0.176842643648599	-0.147393203170185	0.089
0.02968445	-16.3594284277765	29.7151722204255	406.608437314196	0.176350423982599	-0.146189510105443	0.0890000000000001
0.03058651	-16.8655865007276	30.1222698949667	409.49103591178	0.175865874560405	-0.14499846895286	0.0889999999999999
0.03148857	-17.3689025548374	30.5301417987203	412.35624803432	0.175388996369278	-0.143820080394288	0.0889999999999999
0.03211319	-17.8693781852451	30.9387790980772	415.204074169269	0.174919789942436	-0.142654345090054	0.0889999999999999
0.03306612	-18.3670144829723	31.3481732602005	418.03451039029	0.174458255267255	-0.1415012636749	0.089
0.03401905	-18.861812275257	31.7583163210664	420.847549329786	0.174004391679634	-0.140360836753756	0.089
0.03437244	-19.3537719724455	32.1692010585957	423.643179365274	0.173558197742736	-0.13923306489739	0.0889999999999997
0.03571332	-19.8428933431983	32.5808211409346	426.4213839371	0.17311967110823	-0.138117948638052	0.0889999999999997
0.03647459	-20.3291755913051	32.9931714129795	429.18214320596	0.172688808357915	-0.137015488465326	0.0889999999999998
0.03723586	-20.8126169334495	33.4062480263088	431.925431100306	0.172265604823451	-0.13592568482256	0.0889999999999999
0.03757411	-21.293214326909	33.8200487423268	434.651213790244	0.171850054381833	-0.134848538104544	0.089
0.03878995	-21.7709633781096	34.234573416569	437.359449862665	0.171442149224072	-0.13378404865752	0.0890000000000002
0.03943558	-22.2458584622721	34.6498247119622	440.0500925731	0.171041879087289	-0.132732216783417	0.089
0.04008121	-22.7178921140205	35.0658084718299	442.723086484931	0.170649229357714	-0.131693042751418	0.0890000000000004
0.04038254	-23.1870548231194	35.482534595877	445.378366894598	0.170264181711704	-0.130666526822158	0.089
0.04086283	-23.653335018509	35.9000182903582	448.015861152413	0.169886715412132	-0.129652669293462	0.0890000000000001
0.04200501	-24.1167186616525	36.3182816162624	450.635490150431	0.169516808494681	-0.128651470320469	0.089
0.04262604	-24.5771889476394	36.7373550357017	453.237169004187	0.169154438101822	-0.127662929198501	0.0889999999999996
0.04324708	-25.0347264792447	37.1572799657528	455.820812191005	0.168799580872661	-0.126687045273606	0.0889999999999998
0.04363267	-25.4893090685369	37.5781117850711	458.386339659457	0.16845221328381	-0.125723818638544	0.0890000000000001
0.04406775	-25.9409115039799	37.9999230829379	460.933684653936	0.168112311701926	-0.124773250665082	0.089
0.04494197	-26.3895057692156	38.4228063398921	463.462803948231	0.167779851023712	-0.123835344555451	0.0889999999999999
0.04581619	-26.8350626094224	38.8468745310194	465.973697939246	0.167454804361261	-0.122910108822853	0.089
0.04623841	-27.2775553376966	39.2722567634706	468.466441999331	0.167137144707464	-0.121997563350186	0.0890000000000001
0.04725096	-27.716966912634	39.6990791899208	470.941225913662	0.166826848086524	-0.121097752180282	0.0889999999999999
0.04764968	-28.1532986132525	40.1274160537043	473.398369812694	0.166523895583196	-0.120210768234431	0.0889999999999999
0.0483018	-28.5865736736936	40.5571985109568	475.838255288956	0.16622827319066	-0.119336813385394	0.0889999999999999
0.0488399	-29.0171846583509	40.9868615924828	478.258008892579	0.165954856964874	-0.118479446568888	0.0889999999999999
0.04952692	-29.4448575834674	41.4162080559251	480.659390043286	0.165690269334264	-0.117636516164919	0.089
0.05021393	-29.8696024516274	41.8451064999534	483.042272148034	0.165434012435405	-0.116809228416215	0.089
0.05060592	-30.2913745629527	42.2734360766146	485.406354296395	0.165185609330202	-0.116000273266932	0.0889999999999999
0.05133859	-30.7101281537514	42.7010711751638	487.751419653701	0.164944608484807	-0.115213826804109	0.089
0.05193058	-31.1258471078528	43.1278930856639	490.07764743067	0.164710584423506	-0.114455822508058	0.089
0.05252258	-31.5383955418593	43.553760607316	492.385086632828	0.164483151218235	-0.113734526458822	0.089
0.05287652	-31.947538061156	43.9784997861703	494.673704882334	0.164261963507598	-0.113052709378511	0.0889999999999999
0.05346879	-32.3531894726373	44.4019438163707	496.943457670051	0.164046713392356	-0.112399142270736	0.0889999999999999
0.05399633	-32.7555917527472	44.8239837443663	499.194580480787	0.163837126321768	-0.111751276330157	0.089
0.05452386	-33.1552294683089	45.2445905460819	501.427879049616	0.163632958581738	-0.11109678508071	0.089
0.05486167	-33.5526545619322	45.663759792337	503.644244884928	0.163433997356483	-0.110438053430799	0.089
0.05526132	-33.9483182227826	46.0814926265511	505.844523068487	0.163240054656069	-0.109776656124265	0.089
0.05581106	-34.3424927609844	46.4978233503034	508.029759678769	0.163050960583186	-0.109113980175153	0.0889999999999999
0.0563608	-34.7351840335454	46.9127823917419	510.200923941953	0.162866560712547	-0.108452266614511	0.089
0.05669151	-35.1263873342786	47.3264562388571	512.359284965319	0.162686710158595	-0.107792692155557	0.0889999999999999
0.05708181	-35.5161790633342	47.7390091453256	514.50629119734	0.162511270420355	-0.10713587732233	0.089
0.05760699	-35.9046744608585	48.1506694409211	516.643178340602	0.162340107120019	-0.106482282291674	0.089
0.05813216	-36.2919422071569	48.5616738932857	518.770713935174	0.162173092463914	-0.105832307337499	0.0889999999999999
0.05838145	-36.6779570301373	48.9722283353836	520.88910143571	0.162010108707929	-0.105186303748561	0.089
